<?xml version="1.0" encoding="iso-8859-1"?>
<!-- Generator: Adobe Illustrator 19.0.0, SVG Export Plug-In . SVG Version: 6.00 Build 0)  -->
<svg version="1.1" id="Layer_1" xmlns="http://www.w3.org/2000/svg" xmlns:xlink="http://www.w3.org/1999/xlink" x="0px" y="0px"
	 viewBox="0 0 511.992 511.992" style="enable-background:new 0 0 511.992 511.992;" xml:space="preserve">
<g>
	<g>
		<g>
			<path d="M416,117.329c29.397,0,53.333-23.936,53.333-53.333c0-5.888-4.779-10.667-10.667-10.667
				c-29.397,0-53.333,23.936-53.333,53.333C405.333,112.551,410.112,117.329,416,117.329z"/>
			<path d="M510.315,248.444c-1.707-2.645-4.459-4.416-7.573-4.821c-15.211-2.027-26.688-14.507-26.688-29.035
				c0-12.715,8.619-23.915,21.483-27.883c3.2-0.981,5.76-3.435,6.891-6.592c1.131-3.157,0.704-6.677-1.152-9.472
				c-12.437-18.816-32.299-31.979-48.299-31.979c-10.688,0-20.352,3.115-28.885,5.888c-6.592,2.133-12.8,4.16-17.941,4.16
				s-11.349-2.027-17.941-4.16c-8.512-2.773-18.176-5.888-28.885-5.888c-24.939,0-62.677,32.277-62.677,80.939
				c0,45.867,35.115,111.061,67.883,111.061c15.68,0,25.259-4.139,32.235-7.147c8.853-3.819,9.963-3.797,18.731,0
				c6.997,3.008,16.555,7.147,32.256,7.147c24.533,0,50.667-37.291,61.76-73.344C512.448,254.332,512,251.089,510.315,248.444z"/>
			<path d="M433.941,350.609c-7.573-1.237-14.677-3.243-21.675-6.165c-2.624-1.109-5.568-1.109-8.213,0
				c-8.384,3.52-20.224,7.531-37.483,7.531c-27.349,0-48.085-23.872-58.027-38.101c-0.149-0.213-0.405-0.299-0.576-0.512
				c-0.704-0.875-1.536-1.557-2.475-2.176c-0.384-0.256-0.704-0.555-1.131-0.747c-1.387-0.661-2.923-1.109-4.565-1.109H21.333
				V106.663c0-17.643,14.357-32,32-32h331.883c5.888,0,10.667-4.779,10.667-10.667s-4.779-10.667-10.667-10.667H53.333
				C23.936,53.329,0,77.265,0,106.663v234.667c0,29.397,23.936,53.333,53.333,53.333h127.701
				c-1.088,21.397-5.931,42.667-21.035,42.667c-5.888,0-10.667,4.779-10.667,10.667c0,5.888,4.779,10.667,10.667,10.667h128
				c5.888,0,10.667-4.779,10.667-10.667c0-5.888-4.779-10.667-10.667-10.667c-15.104,0-19.947-21.269-21.035-42.667h127.701
				c19.669,0,37.696-10.923,46.997-28.523c1.6-3.051,1.664-6.677,0.128-9.749C440.256,353.319,437.333,351.164,433.941,350.609z"/>
		</g>
	</g>
</g>
<g>
</g>
<g>
</g>
<g>
</g>
<g>
</g>
<g>
</g>
<g>
</g>
<g>
</g>
<g>
</g>
<g>
</g>
<g>
</g>
<g>
</g>
<g>
</g>
<g>
</g>
<g>
</g>
<g>
</g>
</svg>
